 <svg  version="1.0" xmlns="http://www.w3.org/2000/svg"  width="204.000000pt" height="192.000000pt" viewBox="0 0 204.000000 192.000000"  preserveAspectRatio="xMidYMid meet">  <g transform="translate(0.000000,192.000000) scale(0.100000,-0.100000)" fill="#1b1dc4" stroke="none"> <path d="M0 960 l0 -960 1020 0 1020 0 0 960 0 960 -1020 0 -1020 0 0 -960z m1265 -5 l0 -260 -49 -3 c-79 -5 -81 -2 -36 80 22 40 40 78 40 83 0 10 -12 -9 -75 -120 -48 -83 -39 -34 10 58 l46 87 -47 90 c-26 49 -44 93 -41 97 9 9 7 12 66 -101 28 -54 51 -93 51 -87 0 7 -22 54 -50 105 -47 87 -50 98 -50 165 l0 72 68 -3 67 -3 0 -260z m-715 60 c0 -50 -2 -55 -25 -61 -14 -3 -32 -4 -40 -1 -12 5 -15 -14 -17 -126 l-3 -132 -70 0 -70 0 -3 128 -3 127 -39 0 -40 0 0 60 0 60 155 0 155 0 0 -55z m331 29 c50 -29 69 -75 69 -164 0 -140 -46 -185 -190 -185 -143 0 -190 45 -190 185 0 97 19 137 80 168 38 20 56 23 121 19 52 -2 87 -10 110 -23z m221 -64 c27 -47 48 -92 48 -100 0 -8 -23 -54 -51 -102 -50 -87 -51 -88 -90 -88 -25 0 -39 5 -39 13 0 6 20 49 45 95 l44 83 -51 95 -50 95 48 -3 49 -3 47 -85z m39 -8 l50 -92 -51 -95 c-29 -52 -56 -95 -61 -95 -15 0 -11 12 41 104 l49 88 -49 90 c-54 98 -55 101 -39 96 6 -2 33 -45 60 -96z m540 -48 c0 -79 1 -163 1 -186 l1 -43 -134 0 c-116 0 -139 3 -168 20 -51 30 -74 67 -79 129 -7 87 5 141 38 173 42 40 89 51 223 51 l117 0 1 -144z m114 -161 c24 -33 -7 -75 -51 -69 -26 4 -42 50 -24 70 17 21 60 20 75 -1z"/> <path d="M717 943 c-4 -3 -7 -32 -7 -64 0 -55 1 -58 29 -64 48 -10 71 9 71 60 0 65 -7 75 -49 75 -21 0 -41 -3 -44 -7z"/> <path d="M1452 938 c-7 -7 -12 -34 -12 -60 0 -42 3 -50 25 -60 18 -8 35 -9 53 -2 24 8 27 15 30 57 2 27 -2 55 -9 63 -14 17 -70 19 -87 2z"/> <path d="M1755 759 c-4 -6 -5 -12 -2 -15 2 -3 7 2 10 11 7 17 1 20 -8 4z"/> <path d="M1727 753 c-3 -5 -1 -17 4 -28 7 -17 8 -17 8 8 1 27 -4 34 -12 20z"/> <path d="M1775 741 c-3 -5 -1 -12 5 -16 5 -3 10 1 10 9 0 18 -6 21 -15 7z"/> <path d="M1750 720 c0 -5 5 -10 11 -10 5 0 7 5 4 10 -3 6 -8 10 -11 10 -2 0 -4 -4 -4 -10z"/> </g> </svg> 